<svg width="146" height="20" viewBox="0 0 146 20" fill="none" xmlns="http://www.w3.org/2000/svg">
<path d="M44.6023 4.46224C45.2397 3.31977 46.1104 2.42809 47.2163 1.79047C48.3205 1.15285 49.5538 0.833221 50.9129 0.833221C52.57 0.833221 53.9904 1.22169 55.1724 2.00028C56.3544 2.77886 57.2153 3.87543 57.7533 5.29327H56.0118C55.5863 4.29833 54.939 3.51974 54.0682 2.95752C53.1975 2.39694 52.1462 2.11665 50.9129 2.11665C49.822 2.11665 48.8419 2.36908 47.9695 2.87393C47.0987 3.37878 46.415 4.10491 45.9201 5.05068C45.4234 5.9981 45.1768 7.09467 45.1768 8.34368C45.1768 9.59269 45.4251 10.686 45.9201 11.6252C46.415 12.5644 47.0987 13.2873 47.9695 13.7921C48.8403 14.297 49.822 14.5494 50.9129 14.5494C52.1446 14.5494 53.1975 14.2724 54.0682 13.7184C54.939 13.1643 55.588 12.3972 56.0118 11.4154H57.7533C57.2153 12.8185 56.3511 13.9052 55.1608 14.6756C53.9706 15.4476 52.5551 15.8328 50.9113 15.8328C49.5521 15.8328 48.3188 15.5132 47.2146 14.8756C46.1104 14.238 45.238 13.3512 44.6007 12.2136C43.9633 11.0777 43.6438 9.78775 43.6438 8.34368C43.6438 6.89961 43.9616 5.60635 44.6007 4.46224H44.6023Z" fill="#EF5E1A"/>
<path d="M62.2332 15.1191C61.3611 14.642 60.673 13.9643 60.169 13.0844C59.6649 12.2062 59.4129 11.1775 59.4129 10.0016C59.4129 8.82577 59.6682 7.79871 60.1789 6.91884C60.6896 6.04059 61.3843 5.36128 62.2647 4.88414C63.1435 4.40701 64.13 4.16763 65.2227 4.16763C66.3153 4.16763 67.3052 4.40701 68.1906 4.88414C69.0776 5.36128 69.7724 6.03897 70.2764 6.91884C70.7805 7.7971 71.0325 8.82577 71.0325 10.0016C71.0325 11.1775 70.7771 12.1884 70.2665 13.0731C69.7558 13.9594 69.0528 14.6403 68.1591 15.1175C67.2654 15.5946 66.2722 15.834 65.1796 15.834C64.0869 15.834 63.1054 15.5946 62.2316 15.1175L62.2332 15.1191ZM67.3085 14.0597C67.9601 13.72 68.489 13.2089 68.8936 12.5232C69.2982 11.8374 69.5004 10.9979 69.5004 10.0016C69.5004 9.0053 69.3015 8.16425 68.9052 7.48008C68.5073 6.7943 67.9833 6.2832 67.3301 5.94355C66.6768 5.60389 65.9688 5.43568 65.2028 5.43568C64.4368 5.43568 63.7271 5.60551 63.0755 5.94355C62.4223 6.2832 61.9016 6.7943 61.512 7.48008C61.1223 8.16586 60.9267 9.0053 60.9267 10.0016C60.9267 10.9979 61.1207 11.839 61.512 12.5232C61.9016 13.2089 62.4206 13.72 63.0656 14.0597C63.7106 14.3994 64.4169 14.5676 65.1829 14.5676C65.9489 14.5676 66.6586 14.3977 67.3102 14.0597H67.3085Z" fill="#EF5E1A"/>
<path d="M90.5094 5.43938C91.3593 6.28611 91.7827 7.51372 91.7827 9.12057V15.834H90.3289V9.28893C90.3289 8.04498 90.027 7.09362 89.4231 6.43487C88.8193 5.77774 87.9989 5.44918 86.9586 5.44918C85.9183 5.44918 85.0142 5.80553 84.3677 6.51987C83.7212 7.23257 83.3996 8.26892 83.3996 9.62403V15.834H81.9458V9.28893C81.9458 8.04498 81.6439 7.09362 81.04 6.43487C80.4362 5.77774 79.6076 5.44918 78.5558 5.44918C77.504 5.44918 76.6114 5.80553 75.9649 6.51987C75.3184 7.23257 74.9968 8.26892 74.9968 9.62403V15.834H73.5233V4.38013H74.9968V6.3515C75.3611 5.6388 75.8812 5.0961 76.5556 4.72504C77.23 4.35398 77.9799 4.16927 78.8085 4.16927C79.8045 4.16927 80.6791 4.40792 81.4306 4.88197C82.1821 5.35764 82.7252 6.05727 83.0632 6.9792C83.3717 6.07034 83.9017 5.37399 84.6532 4.89177C85.4047 4.40956 86.2563 4.16763 87.2113 4.16763C88.5584 4.16763 89.6578 4.591 90.5077 5.43611L90.5094 5.43938Z" fill="#EF5E1A"/>
<path d="M94.1533 6.91923C94.6283 6.04085 95.2854 5.36145 96.1296 4.88424C96.9721 4.40704 97.9255 4.16763 98.9865 4.16763C100.047 4.16763 101.044 4.41675 101.843 4.91498C102.643 5.41321 103.221 6.05056 103.575 6.8254V4.33425H105.061V15.669H103.575V13.1568C103.206 13.9317 102.621 14.5722 101.822 15.0769C101.022 15.5816 100.069 15.834 98.965 15.834C97.8609 15.834 96.9721 15.5914 96.1296 15.1077C95.2871 14.624 94.6283 13.9381 94.1533 13.0517C93.6782 12.1668 93.4415 11.1412 93.4415 9.97979C93.4415 8.81833 93.6782 7.79598 94.1533 6.91761V6.91923ZM103 7.59378C102.618 6.90143 102.098 6.36923 101.44 5.99556C100.781 5.62188 100.056 5.43424 99.2613 5.43424C98.4668 5.43424 97.7037 5.6138 97.0515 5.97453C96.3994 6.33526 95.8863 6.85614 95.5122 7.54201C95.1365 8.22789 94.9494 9.03994 94.9494 9.9814C94.9494 10.9229 95.1365 11.722 95.5122 12.4208C95.8879 13.1196 96.401 13.6534 97.0515 14.019C97.702 14.3862 98.4386 14.569 99.2613 14.569C100.084 14.569 100.781 14.3814 101.44 14.0077C102.098 13.634 102.618 13.1018 103 12.4095C103.383 11.7171 103.575 10.9148 103.575 10.0008C103.575 9.08685 103.383 8.28451 103 7.59216V7.59378Z" fill="#EF5E1A"/>
<path d="M117.048 5.43628C117.909 6.28314 118.341 7.51092 118.341 9.11799V15.8324H116.902V9.28638C116.902 8.04225 116.592 7.09076 115.975 6.43191C115.357 5.7747 114.512 5.44609 113.444 5.44609C112.375 5.44609 111.471 5.79595 110.818 6.49567C110.166 7.19539 109.839 8.22372 109.839 9.58066V15.834H108.381V4.37689H109.839V6.32892C110.2 5.6292 110.721 5.0946 111.403 4.72349C112.083 4.35237 112.854 4.16763 113.717 4.16763C115.077 4.16763 116.189 4.59106 117.052 5.43628H117.048Z" fill="#EF5E1A"/>
<path d="M121.555 6.74185C122.036 5.8462 122.698 5.15344 123.541 4.66686C124.383 4.18028 125.335 3.93616 126.398 3.93616C127.46 3.93616 128.338 4.18358 129.159 4.67676C129.98 5.17159 130.582 5.81322 130.964 6.60329V0.000610352H132.451V15.6653H130.964V13.0823C130.61 13.8872 130.029 14.547 129.223 15.0616C128.415 15.5762 127.467 15.8335 126.376 15.8335C125.285 15.8335 124.362 15.5861 123.519 15.0929C122.677 14.5998 122.018 13.9004 121.543 12.9965C121.068 12.0943 120.831 11.0485 120.831 9.86423C120.831 8.67993 121.071 7.63749 121.553 6.74185H121.555ZM130.392 7.42966C130.009 6.7237 129.49 6.18104 128.831 5.80002C128.172 5.419 127.447 5.22767 126.654 5.22767C125.861 5.22767 125.097 5.41075 124.445 5.77858C123.792 6.1464 123.279 6.67752 122.905 7.37688C122.529 8.07624 122.342 8.90426 122.342 9.86423C122.342 10.8242 122.529 11.639 122.905 12.3516C123.281 13.0641 123.794 13.6084 124.445 13.9812C125.095 14.3556 125.832 14.542 126.654 14.542C127.477 14.542 128.174 14.3507 128.831 13.9697C129.49 13.5886 130.009 13.046 130.392 12.34C130.774 11.6341 130.966 10.8159 130.966 9.88402C130.966 8.95209 130.774 8.13397 130.392 7.42801V7.42966Z" fill="#EF5E1A"/>
<path d="M134.82 6.91923C135.295 6.04085 135.952 5.36145 136.796 4.88424C137.638 4.40704 138.592 4.16763 139.653 4.16763C140.714 4.16763 141.71 4.41675 142.51 4.91498C143.309 5.41321 143.887 6.05056 144.241 6.8254V4.33425H145.727V15.669H144.241V13.1568C143.872 13.9317 143.288 14.5722 142.488 15.0769C141.689 15.5816 140.735 15.834 139.631 15.834C138.527 15.834 137.638 15.5914 136.796 15.1077C135.953 14.624 135.295 13.9381 134.82 13.0517C134.345 12.1668 134.108 11.1412 134.108 9.97979C134.108 8.81833 134.345 7.79598 134.82 6.91761V6.91923ZM143.667 7.59378C143.284 6.90143 142.765 6.36923 142.106 5.99556C141.447 5.62188 140.722 5.43424 139.929 5.43424C139.136 5.43424 138.372 5.6138 137.72 5.97453C137.067 6.33526 136.554 6.85614 136.18 7.54201C135.805 8.22789 135.617 9.03994 135.617 9.9814C135.617 10.9229 135.805 11.722 136.18 12.4208C136.556 13.1196 137.069 13.6534 137.72 14.019C138.37 14.3862 139.107 14.569 139.929 14.569C140.752 14.569 141.449 14.3814 142.106 14.0077C142.765 13.634 143.284 13.1018 143.667 12.4095C144.049 11.7171 144.241 10.9148 144.241 10.0008C144.241 9.08685 144.049 8.28451 143.667 7.59216V7.59378Z" fill="#EF5E1A"/>
<path d="M34.9131 3.79483C35.8239 3.79645 36.5645 3.05456 36.5661 2.13688C36.5677 1.2192 35.8304 0.474089 34.9196 0.472476C34.0088 0.470863 33.2683 1.21275 33.2667 2.13043V2.13365C33.2667 3.04972 34.0024 3.79322 34.9131 3.79322V3.79483Z" fill="#EF5E1A"/>
<path d="M34.9127 16.0587C34.0019 16.0571 33.2614 16.799 33.2598 17.7151C33.2582 18.6328 33.9939 19.3779 34.9047 19.3795C35.8154 19.3811 36.556 18.6392 36.5576 17.7232V17.7199C36.5576 16.8039 35.8219 16.0604 34.9127 16.0587Z" fill="#EF5E1A"/>
<path d="M38.8095 12.3597H35.8475C35.5166 12.35 35.1857 12.371 34.8596 12.4258V12.3822C35.2242 12.0807 35.5551 11.7404 35.8475 11.3662L39.3685 6.89069C39.7091 6.5391 39.8954 6.06332 39.8842 5.57303V5.29241C39.8842 4.68761 39.4762 4.36344 38.7035 4.36344H31.1907C30.8984 4.34731 30.6108 4.43279 30.3747 4.60697C30.1145 4.84889 29.9795 5.19725 30.0101 5.55207V6.30685C29.9362 6.88907 30.3442 7.4213 30.9225 7.49548C31.0124 7.50677 31.1024 7.50677 31.1907 7.49548H33.8958C34.2186 7.50194 34.5415 7.48742 34.8612 7.45194V7.49548C34.5062 7.80192 34.1833 8.14222 33.8958 8.51154L30.3538 12.9645C30.0133 13.3161 29.8269 13.7918 29.8382 14.2821V14.5627C29.8382 15.1675 30.2462 15.4917 31.0188 15.4917H38.8111C39.1613 15.5207 39.5051 15.3869 39.7444 15.1305C39.9211 14.8934 40.0079 14.5998 39.9918 14.3031V13.5467C40.0657 12.9645 39.6561 12.4322 39.0794 12.3581C38.991 12.3468 38.9011 12.3468 38.8127 12.3581L38.8095 12.3597Z" fill="#EF5E1A"/>
<path d="M16.6532 0.277727C16.4042 0.0825793 16.0926 -0.0141884 15.7778 0.00516514H14.4542C14.0622 -0.0319291 13.6799 0.132576 13.4341 0.44062C13.2815 0.680926 13.206 0.963165 13.2189 1.24863V1.81311C13.1418 2.42274 13.5691 2.97916 14.1747 3.05819C14.2678 3.06947 14.361 3.06947 14.4542 3.05819H15.7778C16.038 3.06786 16.2966 3.00658 16.5247 2.87916C16.8685 2.64047 17.0564 2.23082 17.0146 1.81311V1.24863C17.0436 0.887364 16.9102 0.532549 16.6532 0.277727Z" fill="#EF5E1A"/>
<path d="M15.7507 4.36177H14.3982C13.8199 4.28758 13.2914 4.69884 13.2175 5.28106C13.2063 5.36976 13.2063 5.46008 13.2175 5.5504V14.3046C13.1999 14.6014 13.2882 14.8949 13.4649 15.132C13.7059 15.3884 14.048 15.5223 14.3982 15.4933H15.7507C16.0848 15.5191 16.4125 15.3997 16.6535 15.1659C16.8511 14.924 16.9506 14.6159 16.9314 14.303V5.54878C16.9523 5.23429 16.8527 4.92463 16.6519 4.68271C16.4109 4.45208 16.0832 4.33435 15.7507 4.36016V4.36177Z" fill="#EF5E1A"/>
<path d="M28.0512 4.32958H27.0425C26.2698 4.32958 25.8618 4.74084 25.8618 5.25855V5.30209C25.8618 5.37467 25.8682 5.44724 25.8827 5.51821H25.8393C25.8393 5.51821 25.1743 4.06992 22.813 4.06992C19.3562 4.06992 17.7466 6.70684 17.7466 9.5389C17.7466 12.371 19.4012 15.1369 22.7905 15.1369C23.8716 15.2159 24.9093 14.6934 25.4956 13.7757H25.5389C25.5389 13.7757 25.5165 14.0563 25.5165 14.187V14.7498C25.5165 16.3933 24.3149 16.89 22.919 16.89C22.2492 16.8997 21.5809 16.7981 20.9448 16.5868C20.4501 16.3094 19.8252 16.49 19.5489 16.9884C19.4991 17.0787 19.4622 17.1771 19.4413 17.2787L19.2052 17.927C18.9177 18.4238 19.0847 19.0608 19.5795 19.3495C19.6646 19.3995 19.7546 19.4366 19.8493 19.4592C20.9047 19.8285 22.0163 20.0108 23.1343 19.9995C25.9469 19.9995 29.2319 18.5077 29.2319 14.4434V5.51821C29.3042 4.93437 28.8913 4.40215 28.3099 4.32958C28.2247 4.31829 28.1364 4.31829 28.0512 4.32958ZM23.6081 12.0258C22.1271 12.0258 21.483 10.7937 21.483 9.40988C21.483 8.13416 22.148 7.18422 23.4587 7.18422C24.5751 7.18422 25.6048 7.61645 25.6048 9.58406C25.6048 11.5517 24.5735 12.0274 23.6081 12.0274V12.0258Z" fill="#EF5E1A"/>
<path d="M7.4899 0.0378248H1.45653C1.14329 0.0168585 0.833271 0.120077 0.592321 0.324902C0.365829 0.568434 0.251779 0.895831 0.275874 1.22807V14.3078C0.266236 14.5578 0.325671 14.8078 0.446145 15.0255C0.672638 15.3561 1.05976 15.5368 1.45653 15.4965H2.85243C3.12871 15.511 3.40018 15.4352 3.63149 15.282C3.91742 15.0433 4.06681 14.6788 4.03468 14.3078V11.0339L3.95597 11.0226C3.08695 10.9548 2.26933 10.5774 1.6525 9.95651C2.47012 10.4694 3.41464 10.7339 4.37844 10.7194H7.4899C10.4745 10.7194 12.492 8.47113 12.492 5.35843C12.492 2.24574 10.4728 0.0378248 7.4899 0.0378248ZM4.01541 7.03574C3.10462 7.03735 2.3641 6.29547 2.36249 5.3794C2.36089 4.46172 3.09659 3.71661 4.00738 3.715C4.91817 3.71338 5.65868 4.45527 5.66029 5.37134V5.37456C5.6619 6.29063 4.9262 7.03574 4.01541 7.03735H4.0122L4.01541 7.03574ZM8.75408 7.03574C7.84329 7.03735 7.10277 6.29547 7.10116 5.3794C7.09956 4.46172 7.83526 3.71661 8.74605 3.715C9.65683 3.71338 10.3974 4.45527 10.399 5.37134V5.37456C10.4006 6.29063 9.66487 7.03574 8.75408 7.03735H8.75086L8.75408 7.03574Z" fill="#EF5E1A"/>
</svg>
